<?xml version="1.0" standalone="no"?>
<!DOCTYPE svg PUBLIC "-//W3C//DTD SVG 20010904//EN"
 "http://www.w3.org/TR/2001/REC-SVG-20010904/DTD/svg10.dtd">
<svg version="1.0" xmlns="http://www.w3.org/2000/svg"
 width="539.000000pt" height="493.000000pt" viewBox="0 0 539.000000 493.000000"
 preserveAspectRatio="xMidYMid meet">

<g transform="translate(0.000000,493.000000) scale(0.100000,-0.100000)"
fill="#000000" stroke="none">
<path d="M2681 4291 l2 -254 -102 2 c-86 2 -101 0 -101 -13 0 -18 -26 -22 -32
-5 -4 11 -10 10 -168 -16 -71 -12 -170 -49 -157 -58 7 -5 2 -6 -15 -3 -15 3
-39 1 -55 -6 -38 -16 -37 -16 -23 -32 19 -23 8 -42 -13 -22 -18 18 -21 12 -18
-26 1 -10 -2 -18 -7 -18 -14 0 -7 61 9 72 33 22 -41 -6 -137 -53 -71 -35 -104
-56 -107 -71 -4 -14 -11 -19 -21 -15 -21 8 -48 -2 -39 -16 3 -6 1 -7 -5 -3
-14 9 -62 -22 -62 -40 0 -7 -6 -11 -14 -8 -8 3 -13 -2 -13 -13 0 -33 -3 -41
-18 -47 -8 -3 -14 0 -12 6 6 29 -33 13 -83 -33 -30 -29 -46 -46 -35 -38 17 11
18 11 7 -1 -7 -8 -20 -15 -30 -15 -10 0 -16 -7 -14 -16 1 -9 -5 -22 -13 -29
-13 -11 -14 -10 -8 6 6 16 5 17 -9 6 -9 -7 -14 -20 -11 -30 2 -9 -3 -26 -11
-37 -15 -20 -15 -20 -13 2 0 12 5 19 9 17 4 -3 8 0 8 6 0 22 -23 3 -95 -80
-45 -51 -71 -90 -67 -99 4 -11 7 -9 13 7 9 25 29 30 29 7 0 -8 9 -24 20 -35
11 -11 20 -27 20 -35 0 -25 38 -18 43 8 l4 22 2 -22 c1 -16 7 -23 21 -23 11 0
20 -5 20 -11 0 -6 10 -9 22 -7 17 2 24 12 28 33 4 21 11 31 28 33 19 3 22 -1
22 -32 0 -30 -4 -37 -25 -42 -33 -8 -32 -22 2 -26 14 -2 28 -9 29 -16 1 -7 0
-8 -3 -2 -6 13 -46 13 -60 -1 -7 -7 -15 -5 -27 6 -16 17 -20 13 -17 -17 2 -12
-5 -18 -18 -18 -12 0 -22 -6 -23 -12 -5 -41 -4 -68 2 -68 4 0 7 -7 7 -15 0 -8
-4 -15 -8 -15 -7 0 -7 -7 1 -45 5 -25 -2 -35 -24 -35 -13 0 -26 6 -29 14 -7
18 -47 17 -47 -1 0 -7 -11 -13 -25 -13 -20 0 -25 5 -25 25 0 14 5 25 10 25 6
0 10 11 10 25 0 16 6 25 15 25 11 0 15 12 15 45 0 33 -4 45 -15 45 -20 0 -20
69 0 96 8 10 14 24 15 29 0 6 -5 3 -11 -5 -9 -12 -10 -12 -5 3 3 10 6 21 6 23
0 3 5 2 10 -1 6 -3 10 -2 10 4 0 15 -18 23 -25 11 -5 -8 -11 -8 -20 0 -15 12
-41 -13 -30 -30 3 -5 -2 -10 -12 -10 -15 0 -16 -2 -3 -10 13 -8 13 -10 -2 -10
-19 0 -98 -115 -98 -142 0 -10 -5 -18 -11 -18 -6 0 -8 -7 -5 -16 3 -8 2 -13
-2 -10 -9 5 -46 -63 -39 -71 2 -2 10 10 17 27 7 16 16 27 21 24 5 -3 2 -12 -6
-20 -18 -19 -19 -34 -2 -34 8 0 13 -12 12 -32 0 -28 4 -33 34 -41 25 -6 36 -5
42 5 7 10 9 10 9 0 0 -6 3 -11 8 -11 30 5 31 -4 34 -191 2 -105 1 -190 -2
-190 -3 0 -6 -51 -7 -114 -2 -92 1 -115 13 -120 10 -4 14 -23 14 -71 0 -59 -3
-68 -27 -90 -19 -16 -24 -27 -17 -32 20 -14 24 -60 23 -265 0 -112 0 -215 0
-230 1 -16 -4 -28 -10 -28 -7 0 -4 -9 6 -20 12 -14 21 -17 25 -9 4 6 20 9 36
7 25 -2 29 -8 32 -35 3 -35 8 -38 32 -23 13 9 13 11 0 20 -8 5 -10 10 -5 10
21 0 35 -23 24 -37 -9 -10 -8 -13 5 -13 10 0 16 -9 16 -25 0 -15 6 -25 14 -25
8 0 16 -6 19 -12 2 -7 8 -9 13 -5 5 5 1 13 -8 18 -14 8 -15 14 -6 34 6 14 14
25 18 25 11 0 4 -80 -8 -92 -9 -9 -12 -9 -12 0 0 7 -8 12 -17 12 -15 0 -16 -2
-3 -10 8 -5 11 -10 5 -10 -6 0 -10 -26 -10 -58 1 -91 1 -90 -66 -89 l-59 2 0
47 c0 36 4 48 15 48 24 0 18 44 -10 70 -14 13 -25 18 -25 12 0 -19 -146 -16
-154 3 -4 11 2 15 20 15 22 0 23 2 14 20 -6 11 -15 18 -21 15 -5 -4 -7 -10 -4
-15 3 -5 -3 -7 -14 -5 -11 2 -22 -3 -25 -11 -7 -19 34 -104 51 -104 7 0 10 -6
7 -14 -3 -7 1 -20 9 -27 7 -8 14 -18 15 -22 3 -18 66 -107 76 -107 6 0 5 4 -2
9 -11 7 -11 9 2 14 9 4 16 1 17 -6 0 -7 2 -20 4 -30 3 -16 1 -16 -13 -5 -9 7
1 -9 22 -37 21 -27 42 -49 48 -47 5 1 7 -2 4 -7 -4 -5 -2 -12 3 -15 5 -4 12
-2 16 4 3 5 11 10 16 10 6 0 3 -7 -6 -16 -15 -15 -15 -18 1 -35 10 -11 20 -16
23 -13 3 4 0 9 -6 11 -7 3 -13 9 -13 14 0 5 11 3 25 -3 20 -9 22 -14 13 -25
-8 -10 -6 -19 12 -38 13 -13 26 -22 30 -20 4 3 14 -3 21 -12 12 -14 12 -16 -1
-8 -10 5 -9 1 3 -13 11 -11 25 -18 33 -15 9 3 12 0 9 -9 -4 -9 10 -27 35 -47
33 -26 44 -30 55 -21 10 8 15 9 15 2 0 -6 -5 -14 -10 -17 -15 -9 -1 -27 17
-21 8 3 12 2 9 -3 -8 -12 20 -33 44 -35 11 0 21 -5 21 -11 1 -16 21 -35 30
-29 5 3 7 10 4 15 -3 5 1 6 9 3 9 -3 16 -14 16 -24 0 -13 6 -16 23 -13 14 3
33 -5 52 -21 17 -14 25 -26 19 -26 -6 0 -17 6 -23 14 -10 12 -51 29 -51 21 0
-7 74 -48 86 -48 7 0 15 -6 18 -12 2 -7 17 -16 33 -20 15 -3 30 -10 33 -14 3
-5 16 -11 30 -15 17 -5 20 -4 12 2 -11 7 -9 10 7 15 17 4 21 13 21 50 0 31 -5
47 -15 51 -9 3 -15 18 -15 36 l0 30 -89 0 c-50 0 -92 4 -95 8 -3 5 3 21 14 37
10 15 16 34 13 41 -3 8 0 14 6 14 6 0 11 7 11 15 0 11 12 15 50 15 28 0 50 5
50 10 0 6 8 5 19 -2 15 -9 23 -9 35 1 9 7 13 17 10 22 -3 5 0 9 7 9 7 0 9 -8
6 -21 -3 -12 -3 -19 0 -16 3 3 17 1 31 -4 15 -6 45 -11 66 -11 39 0 40 -1 14
-14 -22 -12 -25 -18 -22 -66 1 -29 3 -63 3 -75 1 -23 3 -23 141 -23 133 0 140
1 140 20 0 11 7 20 15 20 8 0 15 -9 15 -20 0 -17 7 -20 45 -20 45 0 53 9 46
53 -2 14 22 7 39 -13 15 -17 25 -19 60 -14 29 5 38 10 28 16 -10 7 -8 8 7 7
11 -1 40 2 65 7 l45 8 -50 7 c-27 4 -70 7 -95 7 l-45 -1 45 -7 45 -7 -46 -1
c-34 -2 -48 2 -53 14 -3 9 -15 14 -28 13 -20 -2 -60 7 -126 27 -14 5 -13 3 2
-10 18 -14 18 -16 3 -16 -10 0 -20 7 -23 15 -7 17 -34 21 -34 4 0 -6 -6 -9
-12 -6 -7 2 -12 11 -10 21 2 11 -4 16 -21 16 -12 0 -27 4 -33 9 -20 19 -77 32
-88 20 -8 -8 -7 -13 1 -16 10 -3 10 -9 0 -24 -19 -31 -30 -22 -23 21 l6 40
-62 31 c-56 27 -60 28 -38 7 14 -13 21 -19 14 -15 -7 4 -15 3 -19 -3 -10 -16
-28 -12 -21 6 3 9 2 12 -5 8 -7 -4 -9 3 -7 17 2 19 -2 24 -19 25 -13 1 -23 -3
-23 -8 0 -5 -13 -2 -29 6 -16 9 -31 13 -34 10 -3 -3 -13 -7 -24 -8 -10 -2 -17
-10 -15 -20 2 -9 -1 -16 -7 -16 -10 0 -9 14 4 43 9 21 1 32 -16 21 -16 -9 -79
-11 -79 -1 0 4 15 7 33 7 17 0 38 4 46 9 20 13 41 2 34 -17 -4 -13 -3 -14 5
-3 5 7 14 11 19 8 12 -8 63 -17 63 -12 0 8 -45 28 -65 29 -11 1 -20 8 -20 16
0 8 -9 19 -20 25 -11 5 -35 24 -54 40 -18 17 -42 30 -54 30 -11 0 -22 7 -24
15 -4 13 -3 13 6 0 5 -8 13 -11 17 -8 12 12 -108 113 -130 110 -20 -3 -20 -2
-1 12 19 14 19 15 -7 12 -19 -2 -25 1 -21 10 3 8 10 11 17 7 12 -7 -28 42 -58
69 -10 10 -16 18 -12 18 7 0 -3 14 -36 50 -9 10 -13 22 -10 26 4 5 -1 2 -10
-5 -19 -14 -25 -2 -8 15 10 10 -25 74 -41 74 -5 0 -9 9 -9 20 0 11 -7 23 -15
26 -8 4 -13 10 -10 14 7 11 -26 90 -35 85 -5 -3 -6 5 -3 17 4 19 3 20 -7 8 -9
-12 -10 -11 -5 6 6 24 -3 54 -17 54 -5 0 -6 -4 -3 -10 7 -12 -2 -12 -30 -1
-17 7 -17 8 8 15 25 6 39 26 17 26 -5 0 -9 8 -8 18 2 32 -2 53 -10 48 -5 -3
-9 9 -9 27 0 18 -7 68 -16 112 -36 185 -30 381 18 571 13 53 22 101 19 105
-10 17 -26 9 -21 -11 3 -11 1 -17 -5 -14 -5 3 -6 19 -3 34 5 23 3 28 -12 26
-10 0 -19 7 -21 18 -2 11 0 16 7 12 6 -4 11 -2 11 5 0 12 14 4 16 -9 0 -4 4
-15 9 -25 6 -15 10 -16 17 -5 7 10 8 9 4 -4 -3 -10 -1 -18 4 -18 9 0 11 6 14
43 1 6 3 14 6 17 3 3 11 18 18 33 13 31 9 47 -14 47 -21 0 -17 18 6 25 11 3
20 13 20 21 0 8 5 14 10 14 7 0 7 -6 0 -19 -5 -11 -10 -26 -10 -33 0 -7 16 18
35 55 19 38 32 74 28 80 -3 7 -2 9 2 4 12 -10 108 140 99 155 -4 7 -3 10 1 5
8 -7 65 40 65 54 0 4 34 41 75 82 41 42 75 81 75 87 0 6 3 9 8 6 4 -2 16 2 27
10 10 8 13 14 7 14 -7 0 -12 4 -12 10 0 5 6 7 14 4 8 -3 32 7 53 23 36 26 37
29 22 45 -10 9 -20 14 -23 11 -3 -4 -6 -1 -6 5 0 18 18 14 29 -5 12 -21 24
-13 15 11 -7 18 -49 22 -60 5 -5 -8 -9 -7 -15 4 -8 13 -23 14 -87 10 -42 -3
-83 -10 -89 -16 -10 -7 -13 0 -13 31 0 23 -5 42 -12 45 -10 4 -10 7 0 18 6 7
12 21 12 30 0 10 12 31 26 46 15 15 21 20 14 11 -18 -27 -3 -38 51 -38 31 0
48 4 44 10 -4 6 7 10 24 10 29 0 31 3 31 35 0 31 3 35 25 35 24 0 25 3 25 60
0 39 -4 60 -12 60 -6 0 -9 3 -6 6 4 3 15 1 26 -5 14 -7 18 -17 15 -31 -4 -15
0 -20 16 -20 11 0 21 4 21 9 0 5 9 13 21 16 24 8 21 41 -4 38 -9 -2 -24 -4
-33 -5 -9 -2 -19 3 -22 11 -3 8 0 11 7 7 6 -4 18 -3 27 2 20 11 64 -7 64 -26
0 -7 -8 -21 -17 -30 -16 -16 -15 -17 11 -20 18 -2 36 4 50 16 24 23 76 20 76
-4 0 -10 14 -14 50 -14 42 0 48 2 43 17 -5 13 -2 15 11 10 10 -4 22 -7 27 -7
5 0 9 -16 9 -36 0 -28 3 -35 15 -30 11 4 15 -2 15 -22 0 -24 -6 -29 -50 -43
-27 -8 -46 -11 -43 -6 14 23 -47 36 -69 14 -21 -22 -69 -27 -87 -10 -10 11
-16 12 -19 4 -2 -6 -24 -11 -48 -11 l-44 0 0 -60 c0 -42 -4 -60 -13 -60 -7 0
-13 -9 -14 -21 -2 -16 3 -20 16 -16 20 5 24 -22 6 -35 -5 -4 -7 -10 -3 -13 9
-9 159 81 150 90 -4 5 -1 5 6 1 19 -11 35 3 21 20 -6 7 -15 11 -20 8 -5 -3 -9
0 -9 5 0 15 6 14 36 -6 24 -15 28 -15 70 5 24 12 51 22 60 22 9 0 12 5 8 11
-7 11 12 29 31 29 6 0 3 -5 -5 -10 -13 -8 -12 -10 3 -10 9 0 17 5 17 11 0 5 4
7 10 4 12 -7 130 23 149 38 10 8 13 8 8 1 -5 -8 7 -9 41 -3 26 5 49 14 50 19
2 6 13 10 25 10 18 0 19 -2 7 -10 -13 -8 -13 -10 2 -10 23 0 50 29 44 47 -4 9
-1 13 6 9 7 -3 21 -9 31 -12 17 -6 17 -7 0 -20 -16 -12 -12 -13 35 -14 l52 0
1 -252 c0 -162 4 -245 9 -230 5 12 12 22 15 22 4 0 3 -6 -1 -12 -4 -7 7 0 24
16 18 17 32 36 32 43 0 8 4 12 9 9 12 -8 28 13 36 46 4 16 11 25 17 22 5 -3 4
-13 -4 -22 -9 -12 -7 -12 9 2 13 10 20 22 18 26 -3 4 4 10 15 13 13 3 18 11
14 20 -4 11 2 16 18 19 13 2 27 13 33 26 5 12 15 22 21 22 6 0 19 10 30 22 15
19 16 20 2 9 -10 -7 -18 -9 -18 -3 0 5 13 15 30 20 22 8 28 15 24 27 -5 12 -2
16 12 13 11 -2 23 6 31 22 7 14 13 21 13 16 0 -5 9 -1 20 9 11 10 17 22 13 28
-3 5 -2 8 3 5 5 -3 18 4 29 15 11 11 14 17 8 13 -7 -4 -13 -5 -13 -1 0 3 12
10 26 15 14 6 28 19 31 29 3 11 14 22 25 24 11 3 17 10 13 16 -3 6 0 11 8 11
17 0 49 34 41 43 -4 4 5 11 19 16 29 11 41 27 27 36 -13 8 -13 35 0 35 6 0 10
-7 10 -15 0 -16 15 -20 24 -7 5 9 -61 79 -70 75 -2 -2 -3 -1 -1 1 4 8 -46 55
-54 51 -4 -3 -11 0 -15 6 -5 8 -3 9 6 4 8 -5 4 6 -9 24 -13 18 -26 29 -29 26
-4 -3 -2 -9 3 -13 15 -11 17 -34 6 -56 -5 -12 -12 -30 -14 -41 -3 -12 -5 -8
-6 12 0 17 3 34 8 38 11 6 -6 66 -17 62 -4 -1 -7 3 -7 8 0 6 5 9 10 7 6 -2 4
3 -3 10 -7 7 -18 13 -25 13 -7 0 -12 5 -12 12 0 6 -4 15 -9 20 -5 4 -7 -4 -4
-20 3 -16 2 -25 -3 -20 -4 4 -9 20 -11 36 -3 17 -26 50 -63 87 -56 57 -60 59
-81 45 -24 -16 -54 -11 -54 9 0 6 -5 4 -10 -4 -14 -22 -12 -86 3 -98 7 -6 46
-12 87 -14 l75 -3 9 -55 c6 -38 5 -55 -3 -58 -6 -2 -11 -15 -11 -29 0 -23 3
-24 47 -21 44 3 48 1 53 -22 6 -28 31 -70 42 -70 5 0 8 10 8 23 0 18 2 19 10
7 14 -21 12 -67 -2 -76 -7 -4 -34 -6 -60 -5 -38 2 -48 -1 -48 -13 0 -11 -9
-16 -26 -16 -26 0 -26 0 -22 -70 l4 -70 -47 0 c-37 0 -49 -4 -52 -17 -3 -11
-5 -5 -6 12 l-2 30 -16 -22 c-8 -13 -21 -23 -28 -23 -16 0 -25 -23 -25 -66 0
-19 -4 -34 -10 -34 -5 0 -10 -11 -10 -25 0 -24 -2 -25 -52 -23 l-53 3 -3 -45
c-2 -25 -7 -48 -11 -53 -4 -4 -4 21 0 55 11 89 10 238 -1 259 -6 11 -6 20 -1
23 5 4 12 -8 16 -26 11 -55 16 -68 26 -68 5 0 9 19 9 43 0 31 -5 45 -20 55
-17 10 -19 19 -14 52 6 36 4 40 -15 40 -16 0 -21 -6 -21 -25 0 -20 -5 -25 -25
-25 -20 0 -25 5 -25 24 l0 25 -197 1 c-193 0 -198 1 -215 23 -9 12 -13 24 -8
25 6 2 10 26 10 54 l0 50 31 -7 c38 -9 139 3 139 16 0 5 -11 9 -25 9 -14 0
-25 -4 -25 -10 0 -5 -10 -10 -22 -10 -23 1 -23 1 2 15 l25 14 -30 1 c-30 1
-30 1 -6 11 17 7 27 6 32 -2 4 -6 19 -9 33 -7 22 4 26 2 26 -18 0 -15 6 -24
15 -24 8 0 15 7 15 15 0 9 6 12 16 8 13 -5 13 -7 2 -14 -7 -5 18 -6 57 -2 39
3 72 10 74 15 1 5 12 1 23 -9 14 -12 22 -14 25 -6 3 8 13 9 33 3 22 -6 32 -4
45 10 15 16 15 19 -1 34 -19 19 -13 31 12 22 13 -5 15 -14 10 -41 -6 -28 -4
-35 9 -35 22 0 22 88 -1 97 -8 3 -13 12 -10 19 3 8 0 13 -7 11 -8 -1 -11 9 -8
28 2 17 4 64 5 105 l1 75 56 5 c46 4 56 8 53 23 -1 9 2 17 7 17 15 0 -14 40
-34 46 -9 3 -15 9 -12 14 3 5 -4 12 -16 15 -11 4 -18 9 -15 12 8 8 -46 63 -57
56 -6 -3 -7 -1 -4 4 8 12 -20 39 -30 29 -3 -3 -1 -6 6 -6 7 0 9 -5 6 -11 -4
-5 -6 -74 -5 -152 2 -78 2 -150 1 -159 -5 -52 -4 -85 4 -103 8 -18 7 -19 -9
-6 -15 13 -17 37 -15 238 0 124 -2 227 -6 231 -3 4 -5 -108 -4 -247z m110 108
c10 -6 8 -8 -7 -7 -12 1 -21 10 -22 22 -1 15 1 17 7 7 5 -7 15 -17 22 -22z
m52 -61 c-8 -14 -19 -8 -20 12 -1 16 1 17 12 7 7 -6 11 -15 8 -19z m147 -134
c0 -16 -24 -24 -41 -13 -11 7 -10 9 4 9 10 0 16 4 13 8 -3 5 1 9 9 9 8 0 15
-6 15 -13z m56 -46 l19 -23 -22 19 c-20 17 -23 17 -23 3 0 -10 -5 -17 -10 -17
-7 0 -7 6 0 20 13 25 13 25 36 -2z m-316 -48 c0 -5 -4 -10 -10 -10 -5 0 -10 5
-10 10 0 6 5 10 10 10 6 0 10 -4 10 -10z m360 -46 c0 -8 -4 -14 -10 -14 -5 0
-10 9 -10 21 0 11 5 17 10 14 6 -3 10 -13 10 -21z m-386 -39 c-4 -8 -1 -15 5
-15 6 0 11 -7 11 -15 0 -21 -12 -19 -32 5 -16 18 -16 20 0 29 22 13 22 13 16
-4z m-134 -4 c0 -14 44 -21 55 -9 7 7 7 9 0 5 -6 -3 -17 -2 -25 4 -11 6 -6 9
17 9 39 0 50 -14 20 -27 -26 -11 -109 -5 -101 8 3 5 -2 9 -10 9 -9 0 -16 -4
-16 -10 0 -5 -4 -10 -10 -10 -5 0 -7 7 -4 15 7 16 74 22 74 6z m573 -16 c-4
-15 -36 -12 -41 3 -3 9 3 13 19 10 13 -1 23 -7 22 -13z m17 -35 c0 -5 -4 -10
-10 -10 -5 0 -10 5 -10 10 0 6 5 10 10 10 6 0 10 -4 10 -10z m-943 -6 c-3 -3
-12 -4 -19 -1 -8 3 -5 6 6 6 11 1 17 -2 13 -5z m-129 -40 c-9 -10 -21 -13 -29
-8 -9 5 -8 9 7 15 31 12 39 10 22 -7z m1132 -5 c0 -5 -4 -9 -10 -9 -5 0 -10 7
-10 16 0 8 5 12 10 9 6 -3 10 -10 10 -16z m45 11 c3 -6 -1 -7 -9 -4 -18 7 -21
14 -7 14 6 0 13 -4 16 -10z m-1145 -50 c0 -20 -26 -35 -35 -20 -4 6 -1 10 4
10 6 0 11 9 11 21 0 11 5 17 10 14 6 -3 10 -14 10 -25z m1140 20 c0 -5 -4 -10
-9 -10 -6 0 -13 5 -16 10 -3 6 1 10 9 10 9 0 16 -4 16 -10z m40 -4 c0 -3 -11
-17 -24 -31 -16 -18 -25 -22 -29 -13 -2 7 8 21 22 30 28 19 31 20 31 14z
m-1127 -60 c18 -14 23 -36 8 -36 -23 0 -41 14 -41 31 0 22 8 23 33 5z m1119
-28 c-9 -9 -15 -9 -24 1 -9 10 -9 12 -1 7 6 -3 15 -1 18 5 4 5 10 8 13 4 3 -3
0 -11 -6 -17z m-1494 -26 c2 -7 -5 -12 -15 -12 -15 0 -15 -2 -3 -10 15 -9 17
-8 -36 -25 -8 -3 -12 -9 -9 -15 3 -5 2 -10 -3 -10 -5 0 -9 11 -9 25 0 20 3 24
18 20 14 -5 20 0 25 20 6 26 24 30 32 7z m329 12 c-3 -3 -12 -4 -19 -1 -8 3
-5 6 6 6 11 1 17 -2 13 -5z m1103 -4 c0 -5 -4 -10 -10 -10 -5 0 -10 5 -10 10
0 6 5 10 10 10 6 0 10 -4 10 -10z m-884 -15 c14 -13 14 -15 0 -15 -10 0 -16
-9 -16 -25 0 -27 -7 -30 -30 -15 -10 6 -11 10 -2 10 6 0 12 7 12 15 0 10 -10
15 -26 15 -22 0 -25 2 -14 15 7 8 23 15 37 15 13 0 31 -7 39 -15z m864 -25 c0
-5 -4 -10 -10 -10 -5 0 -10 5 -10 10 0 6 5 10 10 10 6 0 10 -4 10 -10z m-40
-15 c0 -8 -7 -15 -15 -15 -8 0 -15 -7 -15 -15 0 -8 -7 -15 -15 -15 -8 0 -15
-4 -15 -10 0 -5 5 -10 11 -10 5 0 7 -4 4 -10 -10 -16 -25 -11 -25 9 0 18 48
80 63 81 4 0 7 -7 7 -15z m-1490 -5 c0 -5 -5 -10 -11 -10 -5 0 -7 5 -4 10 3 6
8 10 11 10 2 0 4 -4 4 -10z m737 -22 c3 6 17 12 31 11 l27 -1 -25 -7 c-19 -6
-24 -13 -22 -32 1 -16 -1 -20 -6 -11 -5 7 -16 10 -25 6 -13 -5 -16 -2 -11 10
4 11 1 16 -12 16 -16 0 -16 2 -4 10 9 6 19 5 29 -3 11 -9 15 -9 18 1z m93 -3
c0 -8 -8 -15 -17 -14 -13 0 -14 2 -4 6 11 5 11 7 0 14 -11 7 -10 9 4 9 9 0 17
-7 17 -15z m187 -7 c-3 -8 -6 -5 -6 6 -1 11 2 17 5 13 3 -3 4 -12 1 -19z
m-373 -30 c8 3 9 -6 2 -21 -5 -9 -7 -9 -12 1 -7 14 -40 16 -49 2 -3 -5 -10
-10 -16 -10 -5 0 -9 5 -9 10 0 6 7 10 15 10 9 0 21 11 27 26 l12 25 12 -23 c7
-13 15 -22 18 -20z m350 23 c4 -5 -3 -7 -14 -4 -23 6 -26 13 -6 13 8 0 17 -4
20 -9z m-989 -37 c0 -37 -29 -41 -31 -4 -2 31 4 42 19 37 7 -2 12 -17 12 -33z
m1045 -10 c0 -13 -4 -24 -9 -24 -5 0 -7 9 -4 20 3 11 0 20 -6 20 -16 0 -13
-42 5 -68 9 -13 11 -22 4 -22 -7 0 -11 -39 -10 -122 1 -172 1 -178 -10 -178
-15 0 -13 383 2 398 16 16 28 6 28 -24z m-628 4 c-5 -7 -9 -27 -7 -45 2 -28 1
-30 -12 -18 -8 8 -11 20 -7 27 5 8 2 9 -9 5 -11 -4 -17 -1 -17 8 0 8 9 15 20
15 11 0 20 5 20 10 0 6 5 10 11 10 8 0 8 -4 1 -12z m-548 -14 c3 -9 2 -12 -5
-9 -6 4 -13 -2 -16 -14 -3 -12 -9 -21 -14 -21 -5 0 -5 8 -2 18 6 15 5 16 -13
2 -18 -14 -18 -14 -5 3 7 9 20 17 27 17 8 0 14 5 14 10 0 15 7 12 14 -6z m629
-1 c-7 -2 -19 -2 -25 0 -7 3 -2 5 12 5 14 0 19 -2 13 -5z m-33 -23 c0 -5 -2
-10 -4 -10 -3 0 -8 5 -11 10 -3 6 -1 10 4 10 6 0 11 -4 11 -10z m873 -15 c-3
-8 1 -15 8 -15 7 0 10 -2 7 -5 -12 -12 -36 7 -31 26 3 10 9 16 14 14 4 -3 6
-12 2 -20z m-947 -33 c-4 -3 -11 0 -16 8 -15 24 -11 33 6 15 9 -9 13 -19 10
-23z m-575 -12 c10 0 19 -4 19 -10 0 -5 -11 -10 -25 -10 -19 0 -25 5 -24 23 0
12 3 16 6 10 2 -7 13 -13 24 -13z m429 8 c0 -6 6 -5 15 2 11 10 18 9 30 -4 9
-9 15 -16 13 -17 -41 -8 -73 -4 -88 11 -17 17 -16 18 6 18 13 0 24 -5 24 -10z
m1070 2 c0 -5 -4 -10 -9 -10 -6 0 -13 5 -16 10 -3 6 1 10 9 10 9 0 16 -4 16
-10z m50 -10 c0 -5 -2 -10 -4 -10 -3 0 -8 5 -11 10 -3 6 -1 10 4 10 6 0 11 -4
11 -10z m-1606 -24 c-3 -9 -10 -16 -15 -16 -6 0 -5 9 1 21 13 24 24 20 14 -5z
m1528 9 c0 -5 -5 -11 -11 -13 -6 -2 -11 4 -11 13 0 9 5 15 11 13 6 -2 11 -8
11 -13z m-1452 -25 c0 -5 -2 -10 -4 -10 -3 0 -8 5 -11 10 -3 6 -1 10 4 10 6 0
11 -4 11 -10z m460 6 c0 -3 -4 -8 -10 -11 -5 -3 -10 -1 -10 4 0 6 5 11 10 11
6 0 10 -2 10 -4z m-510 -15 c0 -5 -6 -11 -14 -14 -7 -3 -15 -16 -18 -29 -4
-22 -3 -24 19 -14 12 6 23 15 23 19 0 5 -4 5 -10 2 -5 -3 -10 -1 -10 5 0 7 6
10 13 7 6 -2 12 -15 11 -28 -1 -12 10 -35 23 -49 16 -17 23 -34 21 -55 l-3
-30 -72 -3 c-40 -2 -73 0 -73 3 0 4 7 14 16 22 10 10 14 26 11 42 -3 14 0 37
7 50 8 13 11 32 8 43 -3 12 1 18 12 18 9 0 16 5 16 10 0 6 5 10 10 10 6 0 10
-4 10 -9z m430 -15 c0 -8 -4 -18 -10 -21 -5 -3 -10 3 -10 14 0 12 5 21 10 21
6 0 10 -6 10 -14z m47 8 c-3 -3 -12 -4 -19 -1 -8 3 -5 6 6 6 11 1 17 -2 13 -5z
m1007 -9 c-4 -8 -10 -12 -15 -9 -14 8 -10 24 6 24 9 0 12 -6 9 -15z m-1551
-48 c-3 -5 -9 -4 -13 3 -5 8 -11 3 -18 -16 -6 -16 -11 -22 -11 -14 -1 9 6 26
15 39 13 17 19 20 25 10 4 -7 5 -17 2 -22z m340 19 c6 -16 -19 -30 -28 -16 -7
11 2 30 15 30 4 0 10 -6 13 -14z m1167 0 c0 -2 -11 -6 -25 -8 -14 -3 -25 -1
-25 3 0 5 11 9 25 9 14 0 25 -2 25 -4z m-1590 -36 c0 -5 -4 -10 -10 -10 -5 0
-10 5 -10 10 0 6 5 10 10 10 6 0 10 -4 10 -10z m300 1 c0 -16 -20 -23 -46 -17
-36 9 -29 26 11 26 19 0 35 -4 35 -9z m177 -7 c2 -6 -3 -14 -11 -17 -10 -4
-13 -1 -9 9 6 17 3 17 -31 4 -15 -5 -28 -5 -31 0 -3 4 3 11 12 13 29 8 66 3
70 -9z m1123 2 c0 -3 -4 -8 -10 -11 -5 -3 -10 -1 -10 4 0 6 5 11 10 11 6 0 10
-2 10 -4z m-1642 -26 c-7 -10 -14 -17 -17 -15 -4 4 18 35 25 35 2 0 -1 -9 -8
-20z m101 -6 c10 -9 -35 -3 -49 6 -11 8 -7 9 15 4 17 -4 32 -8 34 -10z m381
-5 c0 -6 -8 -8 -20 -4 -13 4 -23 0 -32 -14 -9 -15 -15 -17 -25 -9 -16 13 -17
-4 -1 -20 15 -15 2 -16 -15 -2 -7 6 -21 17 -32 25 -18 12 -17 13 19 10 24 -2
44 2 53 11 17 16 53 19 53 3z m1035 -8 c3 -5 1 -12 -5 -16 -5 -3 -10 -1 -10 5
0 7 -7 9 -16 6 -8 -3 -12 -2 -9 4 8 13 32 13 40 1z m40 -1 c-3 -5 -11 -10 -16
-10 -6 0 -7 5 -4 10 3 6 11 10 16 10 6 0 7 -4 4 -10z m-1510 -20 c-3 -5 -1
-10 5 -10 6 0 8 -4 5 -10 -11 -18 -35 -11 -35 10 0 11 7 20 16 20 8 0 12 -4 9
-10z m295 -10 c0 -5 -4 -10 -10 -10 -5 0 -10 5 -10 10 0 6 5 10 10 10 6 0 10
-4 10 -10z m-330 -26 c0 -14 -3 -14 -15 -4 -8 7 -15 14 -15 16 0 2 7 4 15 4 8
0 15 -7 15 -16z m350 -34 c-7 -4 -10 -12 -7 -16 3 -5 -1 -14 -8 -21 -10 -9
-12 -5 -11 20 2 19 7 31 14 30 7 -2 13 7 13 20 2 21 2 21 6 -2 3 -13 -1 -27
-7 -31z m1140 40 c0 -5 -4 -10 -10 -10 -5 0 -10 5 -10 10 0 6 5 10 10 10 6 0
10 -4 10 -10z m-1192 -33 c14 6 15 5 2 -9 -8 -8 -21 -13 -27 -11 -7 3 -13 -1
-13 -8 0 -7 -3 -10 -6 -7 -3 4 0 17 7 30 7 13 14 18 16 11 3 -7 12 -9 21 -6z
m-64 -13 c5 -14 4 -15 -9 -4 -17 14 -19 20 -6 20 5 0 12 -7 15 -16z m1213 -5
c-9 -6 -13 -17 -10 -29 3 -11 0 -20 -6 -20 -5 0 -8 7 -5 15 5 11 2 14 -12 9
-15 -6 -13 -2 6 18 14 13 29 22 34 20 5 -3 2 -9 -7 -13z m-1213 -45 c5 -14 4
-15 -9 -4 -17 14 -19 20 -6 20 5 0 12 -7 15 -16z m49 -1 c-4 -10 -9 -11 -19
-2 -19 15 -18 18 5 16 11 -1 17 -6 14 -14z m27 -3 c0 -5 -5 -10 -11 -10 -5 0
-7 5 -4 10 3 6 8 10 11 10 2 0 4 -4 4 -10z m-400 -26 c0 -17 -16 -19 -26 -2
-5 7 -3 8 6 3 10 -6 12 -4 7 9 -4 10 -3 15 3 11 6 -3 10 -13 10 -21z m-56 -15
c-3 -5 -10 -7 -15 -4 -15 10 -10 -12 6 -25 17 -14 20 -30 5 -30 -5 0 -10 8
-10 18 0 13 -5 10 -23 -12 -21 -25 -23 -26 -23 -7 0 12 6 21 14 21 7 0 10 5 7
11 -8 13 24 51 36 43 5 -3 7 -10 3 -15z m372 -14 c-3 -9 0 -15 10 -15 12 0 12
-2 2 -14 -9 -10 -15 -11 -20 -2 -12 17 -9 46 3 46 6 0 9 -7 5 -15z m-79 -47
c-3 -8 -6 -5 -6 6 -1 11 2 17 5 13 3 -3 4 -12 1 -19z m50 0 c-3 -8 -6 -5 -6 6
-1 11 2 17 5 13 3 -3 4 -12 1 -19z m-90 -17 c10 -16 9 -20 -8 -24 -22 -6 -32
5 -23 27 8 21 17 20 31 -3z m64 -45 c-6 -14 -18 -26 -27 -26 -11 0 -15 -6 -11
-20 3 -11 1 -17 -4 -14 -5 3 -8 18 -7 35 1 19 6 25 12 19 13 -13 29 -13 21 0
-3 5 0 16 7 24 18 19 20 14 9 -18z m-361 14 c0 -5 -2 -10 -4 -10 -3 0 -8 5
-11 10 -3 6 -1 10 4 10 6 0 11 -4 11 -10z m37 -57 c-3 -10 -5 -2 -5 17 0 19 2
27 5 18 2 -10 2 -26 0 -35z m-37 -18 c0 -23 -26 -11 -28 13 -2 21 0 23 13 12
8 -7 15 -18 15 -25z m310 -19 c0 -6 -8 -2 -17 9 -15 19 -15 19 -9 -7 4 -17 2
-28 -4 -28 -11 0 -14 43 -3 53 8 9 33 -12 33 -27z m-85 -56 c3 -5 1 -10 -4
-10 -6 0 -11 5 -11 10 0 6 2 10 4 10 3 0 8 -4 11 -10z m45 2 c0 -5 -6 -16 -12
-25 -12 -16 -13 -15 -14 8 -1 15 3 25 12 25 8 0 14 -4 14 -8z m-160 -67 c0
-25 -4 -45 -10 -45 -5 0 -10 20 -10 45 0 25 5 45 10 45 6 0 10 -20 10 -45z
m37 3 c-3 -8 -6 -5 -6 6 -1 11 2 17 5 13 3 -3 4 -12 1 -19z m63 12 c0 -5 -8
-10 -17 -10 -15 0 -16 2 -3 10 19 12 20 12 20 0z m-40 -110 c0 -11 -4 -20 -10
-20 -5 0 -10 9 -10 20 0 11 5 20 10 20 6 0 10 -9 10 -20z m-61 -145 c5 2 17
-5 27 -17 17 -19 17 -21 2 -15 -26 9 -43 -27 -29 -61 7 -19 6 -48 -4 -102
l-14 -75 6 67 c3 41 0 81 -7 104 -9 27 -10 39 -2 42 6 2 8 10 5 18 -3 9 0 14
7 12 7 -2 15 4 18 12 2 8 1 12 -3 8 -15 -15 -32 12 -26 40 6 27 6 27 9 -6 2
-18 7 -30 11 -27z m-12 -312 c-3 -10 -5 -4 -5 12 0 17 2 24 5 18 2 -7 2 -21 0
-30z m0 -235 c-2 -13 -4 -5 -4 17 -1 22 1 32 4 23 2 -10 2 -28 0 -40z m11 -89
c-3 -20 -5 -19 -9 9 -3 20 -2 29 4 23 5 -5 7 -19 5 -32z m-3 -39 c-3 -5 -1
-10 4 -10 6 0 11 -8 11 -17 0 -15 -2 -14 -15 3 -17 23 -19 34 -4 34 5 0 7 -4
4 -10z m5 -60 c0 -5 -4 -10 -10 -10 -5 0 -10 5 -10 10 0 6 5 10 10 10 6 0 10
-4 10 -10z m0 -80 c0 -5 -2 -10 -4 -10 -3 0 -8 5 -11 10 -3 6 -1 10 4 10 6 0
11 -4 11 -10z m36 -58 c-10 -9 -15 2 -21 39 l-5 34 15 -34 c9 -18 14 -36 11
-39z m14 48 c0 -5 -2 -10 -4 -10 -3 0 -8 5 -11 10 -3 6 -1 10 4 10 6 0 11 -4
11 -10z m-52 -61 c-3 -20 -5 -19 -9 9 -3 20 -2 29 4 23 5 -5 7 -19 5 -32z m57
-68 c-2 -9 -4 -26 -4 -38 -1 -13 -5 -23 -10 -23 -6 0 -9 12 -7 28 1 15 -5 33
-14 40 -13 12 -13 13 3 8 11 -4 17 0 17 12 0 14 2 14 9 3 5 -7 7 -21 6 -30z
m-42 -18 c-7 -2 -21 -2 -30 0 -10 3 -4 5 12 5 17 0 24 -2 18 -5z m103 -44 c3
-6 1 -16 -6 -22 -10 -9 -11 -9 -5 2 6 10 2 11 -16 6 -21 -7 -22 -6 -10 9 16
19 27 20 37 5z m-103 -26 c-7 -2 -19 -2 -25 0 -7 3 -2 5 12 5 14 0 19 -2 13
-5z m137 -51 c0 -13 -12 -22 -22 -16 -10 6 -1 24 13 24 5 0 9 -4 9 -8z m-336
-108 c3 -8 2 -12 -4 -9 -6 3 -10 10 -10 16 0 14 7 11 14 -7z m23 -46 c2 -18 0
-20 -7 -8 -12 18 -13 30 -2 30 4 0 9 -10 9 -22z m407 6 c5 -14 4 -15 -9 -4
-17 14 -19 20 -6 20 5 0 12 -7 15 -16z m-354 -41 c0 -7 -5 -13 -11 -13 -5 0
-8 4 -4 9 3 5 -2 16 -10 24 -22 23 -18 33 5 12 11 -10 20 -24 20 -32z m60 -19
c0 -2 -7 -4 -15 -4 -8 0 -15 4 -15 10 0 5 7 7 15 4 8 -4 15 -8 15 -10z m284
-11 c-4 -22 -3 -25 5 -13 7 9 11 10 11 3 0 -6 -5 -15 -11 -18 -6 -4 -8 -14 -5
-22 4 -8 1 -11 -5 -8 -6 4 -8 14 -4 22 4 13 3 14 -9 4 -9 -8 -16 -8 -20 -2 -4
5 0 13 7 18 7 4 16 16 20 26 10 27 18 20 11 -10z m63 -40 c10 -15 11 -23 4
-23 -6 0 -11 7 -11 15 0 8 -4 15 -10 15 -5 0 -9 12 -9 28 1 20 3 22 6 7 3 -10
12 -29 20 -42z m-387 2 c0 -8 -4 -15 -10 -15 -5 0 -10 7 -10 15 0 8 5 15 10
15 6 0 10 -7 10 -15z m17 -17 c-3 -8 -6 -5 -6 6 -1 11 2 17 5 13 3 -3 4 -12 1
-19z m51 -33 c-3 -3 -9 2 -12 12 -6 14 -5 15 5 6 7 -7 10 -15 7 -18z m-28 -1
c0 -8 -5 -12 -10 -9 -6 4 -8 11 -5 16 9 14 15 11 15 -7z m370 2 c0 -3 -8 -12
-17 -22 -16 -15 -16 -18 0 -45 17 -30 14 -52 -10 -80 -12 -14 -10 -17 17 -22
21 -5 30 -12 30 -27 0 -11 5 -20 10 -20 6 0 10 5 10 10 0 6 23 10 50 10 l50 0
0 -60 c0 -57 -1 -60 -25 -60 -20 0 -25 -5 -25 -26 0 -20 -4 -25 -16 -20 -9 3
-20 6 -25 6 -5 0 -9 7 -9 15 0 29 -30 63 -50 58 -22 -6 -28 12 -7 20 23 8 -1
18 -57 24 -31 3 -56 10 -56 14 0 5 7 9 15 9 8 0 15 9 15 20 0 11 -6 20 -14 20
-9 0 -12 8 -8 25 3 18 0 25 -12 25 -24 0 -20 38 9 76 22 28 30 33 55 27 18 -3
30 -1 30 5 0 6 8 13 18 15 9 3 18 5 20 6 1 0 2 -1 2 -3z m85 -54 c-3 -10 0
-12 10 -9 8 4 17 2 19 -2 3 -5 -5 -8 -17 -7 -15 1 -21 7 -19 19 2 12 -4 17
-25 18 -17 1 -21 3 -10 6 10 3 14 10 10 16 -3 7 3 3 16 -7 12 -11 19 -26 16
-34z m-342 10 c-2 -6 4 -9 12 -6 11 4 15 -1 15 -17 0 -12 3 -19 7 -16 9 9 33
-12 33 -29 0 -22 -27 -16 -33 6 -6 24 -47 28 -47 5 0 -8 -6 -15 -12 -15 -10 0
-10 -2 0 -9 11 -7 11 -9 -2 -14 -10 -4 -16 -1 -16 8 0 8 -4 15 -10 15 -5 0
-10 5 -10 11 0 5 5 7 10 4 6 -3 18 1 27 11 16 16 16 18 -5 34 -29 24 -28 32 6
27 15 -3 26 -9 25 -15z m273 -30 c-4 -3 -11 0 -16 8 -15 24 -11 33 6 15 9 -9
13 -19 10 -23z m41 2 c-3 -3 -12 -4 -19 -1 -8 3 -5 6 6 6 11 1 17 -2 13 -5z
m48 -32 c-3 -3 -11 0 -18 7 -9 10 -8 11 6 5 10 -3 15 -9 12 -12z m35 -56 c0
-5 -9 -1 -20 9 -11 10 -20 22 -20 26 0 5 9 1 20 -8 11 -10 20 -22 20 -27z
m-25 -6 c3 -5 -1 -10 -9 -10 -8 0 -18 5 -21 10 -3 6 1 10 9 10 8 0 18 -4 21
-10z m-266 -15 c1 -2 -2 -16 -8 -32 -10 -25 -11 -25 -7 -3 4 21 1 25 -20 27
-15 0 -31 7 -38 13 -8 10 -2 11 29 5 22 -4 42 -8 44 -10z m405 -37 c-3 -4 -14
2 -25 13 -11 11 -17 24 -14 30 4 5 15 -1 25 -13 10 -13 16 -26 14 -30z m-54
16 c0 -8 -4 -12 -10 -9 -5 3 -10 13 -10 21 0 8 5 12 10 9 6 -3 10 -13 10 -21z
m-334 -61 c-5 -12 0 -13 25 -8 24 5 30 4 27 -6 -5 -16 -37 -19 -55 -5 -16 10
-18 50 -2 41 6 -4 8 -14 5 -22z m107 -73 c17 0 22 -6 24 -27 1 -25 0 -26 -12
-10 -16 22 -26 22 -18 0 6 -16 5 -16 -10 -4 -9 7 -17 20 -17 28 0 13 -3 13
-15 3 -12 -10 -15 -10 -15 3 0 8 7 17 15 21 8 3 16 13 16 23 1 10 4 6 6 -9 3
-21 10 -28 26 -28z m-73 26 c0 -2 -7 -7 -16 -10 -8 -3 -12 -2 -9 4 6 10 25 14
25 6z m630 -41 c0 -2 -6 -5 -13 -8 -8 -3 -14 1 -14 8 0 7 6 11 14 8 7 -3 13
-6 13 -8z m-353 -37 c-3 -8 -6 -5 -6 6 -1 11 2 17 5 13 3 -3 4 -12 1 -19z
m-117 -3 c6 4 27 -1 46 -10 27 -13 34 -22 34 -45 0 -34 -19 -41 -27 -10 -7 27
-23 26 -23 -2 0 -12 -3 -18 -7 -14 -13 12 -11 35 3 40 8 3 14 11 14 17 0 8 -4
8 -14 0 -11 -9 -20 -9 -34 -2 -11 6 -22 7 -26 4 -3 -3 -6 4 -6 17 0 18 3 20
15 10 8 -6 19 -9 25 -5z m575 -5 c3 -5 1 -10 -4 -10 -6 0 -11 5 -11 10 0 6 2
10 4 10 3 0 8 -4 11 -10z m11 -25 c-10 -7 -15 -18 -11 -24 4 -7 0 -8 -11 -4
-15 6 -15 8 6 25 12 10 25 18 29 18 3 0 -2 -7 -13 -15z m-106 -25 c0 -5 -4
-10 -10 -10 -5 0 -10 5 -10 10 0 6 5 10 10 10 6 0 10 -4 10 -10z m135 0 c3 -5
2 -10 -4 -10 -5 0 -13 5 -16 10 -3 6 -2 10 4 10 5 0 13 -4 16 -10z m-618 -21
c2 -17 -1 -18 -12 -9 -8 7 -12 16 -9 21 9 16 20 10 21 -12z m122 -34 c5 3 12
-2 15 -11 9 -24 7 -36 -4 -29 -6 4 -8 11 -5 16 4 5 0 9 -8 9 -14 0 -27 30 -26
60 0 8 5 0 10 -18 5 -18 14 -30 18 -27z m544 8 c3 -5 -8 -8 -24 -9 -15 -1 -26
3 -23 7 6 11 41 12 47 2z m154 -9 c-3 -3 -12 -4 -19 -1 -8 3 -5 6 6 6 11 1 17
-2 13 -5z m-617 -54 c0 -5 -7 -10 -15 -10 -8 0 -15 5 -15 10 0 6 7 10 15 10 8
0 15 -4 15 -10z m88 -52 c-6 -18 -25 -21 -25 -3 0 8 7 15 15 15 7 0 12 -5 10
-12z m32 -29 c0 -5 -4 -9 -10 -9 -5 0 -10 7 -10 16 0 8 5 12 10 9 6 -3 10 -10
10 -16z"/>
<path d="M1660 3639 c0 -5 5 -7 10 -4 6 3 10 8 10 11 0 2 -4 4 -10 4 -5 0 -10
-5 -10 -11z"/>
<path d="M1640 790 c0 -5 5 -10 11 -10 5 0 7 5 4 10 -3 6 -8 10 -11 10 -2 0
-4 -4 -4 -10z"/>
<path d="M2884 4308 c-4 -7 -3 -8 4 -4 15 9 15 1 0 -25 -11 -17 -10 -23 0 -26
7 -3 19 -12 28 -20 13 -14 16 -14 28 3 12 16 11 22 -8 45 -25 33 -43 42 -52
27z"/>
<path d="M3490 3025 l-825 -825 -265 265 -265 265 -143 -143 -142 -142 403
-403 c221 -221 407 -402 412 -402 6 0 444 434 974 964 l964 964 -130 129 c-71
70 -136 133 -144 140 -13 10 -152 -125 -839 -812z"/>
<path d="M1735 3790 c-3 -5 -1 -10 4 -10 6 0 11 5 11 10 0 6 -2 10 -4 10 -3 0
-8 -4 -11 -10z"/>
<path d="M1575 3680 c3 -5 11 -10 16 -10 6 0 7 5 4 10 -3 6 -11 10 -16 10 -6
0 -7 -4 -4 -10z"/>
<path d="M1587 3603 c-10 -9 -9 -33 1 -33 4 0 8 9 9 20 2 21 0 24 -10 13z"/>
<path d="M987 2963 c-4 -3 -7 -11 -7 -17 0 -6 5 -5 12 2 6 6 9 14 7 17 -3 3
-9 2 -12 -2z"/>
<path d="M1004 2948 c-4 -13 -7 -29 -6 -35 2 -7 -2 -13 -8 -13 -5 0 -10 8 -10
18 -1 13 -4 11 -15 -8 -8 -14 -12 -33 -9 -42 3 -11 0 -18 -7 -18 -7 0 -10 -3
-6 -6 3 -4 0 -13 -8 -20 -22 -22 -85 -266 -84 -324 1 -23 3 -20 15 18 3 10 9
10 24 2 26 -14 26 -33 0 -25 -21 7 -26 -5 -33 -75 -4 -32 -4 -31 -7 10 l-3 45
-7 -60 c-12 -90 -11 -328 0 -430 6 -49 19 -132 30 -182 11 -51 20 -95 20 -98
0 -4 5 -3 11 1 8 4 9 0 4 -15 -3 -11 -2 -21 3 -21 5 0 9 -12 9 -27 1 -37 40
-126 53 -118 6 3 7 -1 4 -10 -4 -8 -1 -29 6 -45 10 -24 15 -28 26 -19 8 6 14
8 14 4 0 -4 6 -2 14 4 11 9 14 57 15 236 l1 225 -70 0 c-56 0 -71 3 -78 18
-15 28 -25 162 -13 162 6 0 11 9 11 20 0 11 -5 20 -11 20 -9 0 -10 43 -6 160
l5 160 30 30 c17 16 35 30 41 30 5 0 11 10 13 23 2 18 10 23 41 25 l38 3 -4
167 c-2 92 -6 176 -9 187 -4 11 -7 26 -7 33 -1 20 -19 14 -27 -10z m-54 -169
c0 -4 -6 -10 -12 -12 -10 -4 -10 -7 -1 -14 8 -6 6 -15 -8 -33 -14 -18 -17 -19
-11 -5 6 11 9 32 7 46 -2 17 2 26 11 26 8 0 14 -4 14 -8z m0 -83 c0 -3 -4 -8
-10 -11 -5 -3 -10 -1 -10 4 0 6 5 11 10 11 6 0 10 -2 10 -4z m-20 -60 c0 -8
-7 -16 -15 -20 -13 -4 -14 -2 -5 14 13 23 20 26 20 6z m-43 -28 c-3 -8 -6 -5
-6 6 -1 11 2 17 5 13 3 -3 4 -12 1 -19z m8 -38 c7 0 16 -7 19 -16 9 -23 7 -34
-4 -34 -5 0 -10 9 -10 19 0 10 -7 21 -15 25 -8 3 -15 11 -14 18 0 10 2 10 6 1
2 -7 11 -13 18 -13z m-43 -237 c-5 -59 -10 -63 -11 -10 -1 26 3 47 7 47 4 0 6
-17 4 -37z m7 -135 c1 -16 -3 -28 -9 -28 -6 0 -10 24 -9 53 1 41 3 47 9 27 4
-14 8 -37 9 -52z m-5 -111 c4 -19 3 -26 -4 -22 -5 3 -10 18 -10 32 0 32 5 28
14 -10z m3 -139 c-3 -7 -5 -2 -5 12 0 14 2 19 5 13 2 -7 2 -19 0 -25z m68 -58
c-3 -5 -3 -15 1 -22 5 -8 10 -6 15 8 6 14 7 11 4 -11 -2 -16 -4 -32 -5 -35 0
-3 -8 7 -16 23 -13 24 -12 47 2 47 3 0 2 -4 -1 -10z m-36 -17 c0 -5 -4 -17 -9
-28 -8 -18 -9 -17 -9 8 -1 15 4 27 9 27 6 0 10 -3 9 -7z m78 -45 c-3 -8 -6 -5
-6 6 -1 11 2 17 5 13 3 -3 4 -12 1 -19z m-80 -40 c-3 -8 -6 -5 -6 6 -1 11 2
17 5 13 3 -3 4 -12 1 -19z m41 -29 c-10 -7 -11 -12 0 -29 13 -21 6 -26 -17
-11 -8 5 -10 14 -6 21 6 9 4 11 -5 5 -10 -6 -12 -4 -7 9 4 10 7 19 7 22 0 2 7
1 15 -2 11 -4 15 1 16 17 l2 24 4 -24 c3 -13 -1 -27 -9 -32z m92 -3 c0 -3 -4
-8 -10 -11 -5 -3 -10 -1 -10 4 0 6 5 11 10 11 6 0 10 -2 10 -4z m-50 -51 c0
-8 -7 -15 -16 -15 -14 0 -14 3 -4 15 7 8 14 15 16 15 2 0 4 -7 4 -15z m-8 -43
c-7 -2 -10 -8 -6 -13 3 -5 3 -9 0 -9 -3 0 -10 9 -15 19 -9 17 -8 18 11 13 13
-3 17 -7 10 -10z m14 -92 c8 0 14 -4 14 -10 0 -12 -22 -9 -32 5 -4 6 -7 15 -7
20 0 6 3 4 6 -2 2 -7 11 -13 19 -13z m24 -66 c0 -8 -5 -12 -10 -9 -6 4 -8 11
-5 16 9 14 15 11 15 -7z"/>
<path d="M4403 2715 c-7 -8 -12 -24 -10 -36 1 -12 -4 -24 -10 -26 -7 -3 -13 0
-13 7 0 6 5 8 12 4 7 -5 8 -3 4 5 -8 13 -21 4 -77 -51 -21 -21 -24 -28 -12
-32 8 -3 11 -1 8 4 -3 6 1 7 9 4 9 -3 16 -11 16 -17 0 -6 -3 -7 -7 -4 -3 4
-17 0 -29 -8 -21 -14 -23 -14 -17 1 5 14 3 15 -15 5 -22 -12 -37 -45 -27 -61
3 -5 -1 -10 -10 -10 -10 0 -13 5 -9 12 4 7 3 8 -5 4 -9 -6 -9 -11 1 -23 11
-14 10 -15 -9 -9 -16 5 -27 1 -40 -15 -10 -11 -24 -28 -32 -36 -8 -8 -14 -29
-14 -47 1 -17 4 -91 6 -165 3 -74 1 -148 -4 -164 -5 -17 -5 -37 0 -45 6 -10 4
-21 -5 -30 -8 -7 -14 -22 -14 -32 0 -10 -11 -61 -25 -115 -16 -62 -22 -102
-16 -112 12 -23 2 -53 -19 -53 -12 0 -26 -21 -46 -67 -16 -38 -27 -74 -26 -82
2 -7 -1 -10 -7 -7 -11 7 -45 -50 -37 -62 3 -4 0 -14 -6 -22 -8 -12 -9 -12 -4
3 9 27 0 20 -23 -19 -12 -19 -17 -33 -12 -29 5 3 12 1 15 -4 3 -5 -8 -14 -24
-20 -17 -5 -31 -15 -31 -20 -1 -6 -2 -15 -3 -20 0 -5 -5 -13 -10 -18 -5 -5 -6
-2 -1 7 4 8 -10 -5 -31 -30 -21 -25 -64 -72 -96 -106 -32 -33 -54 -65 -50 -70
4 -5 3 -6 -3 -1 -15 12 -23 8 -30 -13 -4 -11 -10 -18 -14 -15 -6 3 -74 -46
-101 -75 -6 -6 -46 -28 -153 -85 -42 -23 -74 -45 -70 -50 5 -4 3 -5 -4 -2 -15
9 -44 -3 -37 -15 4 -6 -2 -8 -15 -3 -16 5 -20 3 -15 -10 4 -9 13 -14 20 -11 8
3 14 2 14 -3 0 -5 -9 -11 -20 -14 -13 -3 -20 0 -20 8 0 24 -16 25 -70 6 -29
-10 -47 -22 -41 -25 15 -10 51 2 51 17 0 6 7 1 16 -11 9 -13 13 -30 9 -40 -6
-16 -8 -15 -20 2 -12 16 -17 17 -30 6 -8 -7 -13 -15 -11 -19 3 -4 -4 -7 -14
-7 -10 0 -17 4 -14 7 2 4 0 10 -5 14 -6 3 -7 13 -4 22 5 13 2 15 -13 9 -33
-13 -156 -37 -234 -45 -41 -5 -65 -9 -53 -10 13 -1 26 -12 35 -31 10 -24 19
-30 44 -30 17 0 45 -3 63 -6 27 -6 32 -3 41 20 11 30 30 26 30 -5 0 -10 5 -19
10 -19 6 0 10 5 10 10 0 6 11 10 25 10 14 0 25 -4 25 -10 0 -5 5 -10 10 -10 6
0 10 9 10 20 0 13 7 20 20 20 10 0 24 -9 30 -20 7 -13 21 -20 40 -20 23 0 30
4 30 20 0 15 7 20 25 20 14 0 25 -4 25 -10 0 -5 11 -10 25 -10 22 0 25 4 25
35 0 21 -5 35 -12 35 -9 0 -9 3 0 12 7 7 12 22 12 35 0 21 5 23 45 23 25 0 45
5 45 10 0 6 -13 10 -30 10 -16 0 -30 5 -30 11 0 5 -6 7 -12 3 -8 -5 -7 -1 2
10 11 14 15 15 20 4 8 -21 50 -18 50 3 0 13 -5 17 -17 12 -15 -5 -16 -3 -6 7
10 11 15 11 28 0 14 -12 18 -11 25 0 5 8 6 18 3 24 -3 5 -1 6 5 2 18 -11 14
-30 -8 -44 -12 -7 -18 -17 -14 -23 3 -6 11 -3 20 8 8 11 13 13 14 6 0 -9 17
-13 50 -13 38 0 50 -4 50 -15 0 -8 9 -15 19 -15 28 0 38 -52 15 -82 -16 -21
-24 -23 -86 -20 l-68 4 0 -36 c0 -25 -4 -36 -15 -36 -9 0 -15 -10 -15 -26 0
-14 4 -23 10 -19 6 3 10 1 10 -4 0 -6 -4 -11 -10 -11 -20 0 -10 -20 18 -34 26
-14 26 -15 -23 -11 -27 1 -55 -1 -62 -7 -8 -6 -15 -3 -22 9 -7 12 -10 13 -11
4 0 -10 -10 -12 -45 -7 -37 6 -46 4 -52 -9 -3 -10 0 -21 8 -26 16 -10 15 -10
-23 -13 -15 -1 -25 0 -23 2 2 3 -2 11 -10 18 -9 10 -40 14 -104 14 -74 0 -91
3 -91 15 0 11 -12 15 -45 15 -33 0 -45 -4 -45 -15 0 -9 -9 -15 -25 -15 -16 0
-25 6 -25 15 0 17 -31 20 -46 5 -5 -5 -60 -12 -122 -16 -61 -4 -112 -11 -112
-16 0 -4 -11 -8 -25 -8 -20 0 -25 5 -25 25 0 24 -2 25 -70 25 -67 0 -70 -1
-70 -24 0 -20 -6 -25 -35 -28 -19 -2 -32 -2 -30 1 10 10 -40 51 -62 51 -18 0
-23 -5 -23 -25 0 -20 -5 -25 -25 -25 -20 0 -25 5 -25 25 0 14 -4 25 -10 25 -5
0 -10 -11 -10 -24 0 -13 -6 -29 -14 -35 -11 -9 -12 -7 -9 12 6 31 -36 55 -70
40 -15 -7 -29 -8 -38 -2 -23 15 -48 10 -59 -11 -9 -16 -6 -22 20 -35 17 -9 30
-11 30 -5 0 5 7 10 15 10 9 0 12 -6 9 -15 -7 -16 -2 -18 61 -19 22 -1 46 5 53
12 7 6 18 12 24 12 17 0 -33 -40 -51 -41 -9 0 6 -7 34 -14 34 -10 53 -11 60
-4 7 7 4 8 -10 3 -15 -5 -17 -4 -9 5 13 15 44 4 38 -13 -5 -13 39 -29 115 -41
31 -5 42 -4 37 4 -5 7 1 11 14 11 12 0 19 -4 16 -9 -3 -4 6 -6 19 -3 14 2 23
7 21 11 -3 4 11 5 30 3 50 -6 41 -22 -13 -23 l-48 -1 44 -9 c43 -8 71 3 71 30
0 6 15 10 33 10 22 -1 25 -3 10 -6 -26 -5 -47 -28 -38 -43 8 -13 52 -13 60 0
3 6 15 10 26 10 10 0 19 -4 19 -10 0 -5 11 -10 25 -10 14 0 25 4 25 9 0 4 24
4 53 0 28 -5 61 -6 72 -2 19 6 18 7 -5 14 -23 6 -22 7 8 8 23 1 31 -3 26 -11
-5 -8 4 -9 32 -5 21 4 47 7 57 7 9 0 17 4 17 8 0 5 -15 6 -32 4 -19 -3 -29 -1
-25 4 13 13 60 12 74 -2 9 -8 24 -9 57 -1 25 6 44 13 41 16 -2 4 13 7 33 7 45
0 133 25 126 36 -3 4 1 6 8 3 18 -7 73 9 71 20 -1 5 -7 11 -15 13 -9 2 -8 0 2
-7 8 -6 10 -11 4 -11 -16 0 -23 10 -17 26 4 11 8 12 20 3 10 -9 17 -9 25 -1 7
7 21 12 33 11 18 0 18 -1 -4 -10 -13 -5 -22 -12 -19 -14 3 -3 29 5 59 19 30
13 62 26 71 29 12 4 15 12 11 23 -5 14 -2 16 17 11 28 -7 113 31 103 46 -3 6
-1 7 4 4 6 -4 31 4 55 18 23 14 37 25 30 25 -7 0 -10 5 -7 10 3 6 16 10 28 10
23 0 91 49 70 50 -7 0 -13 -5 -13 -11 0 -5 -4 -8 -9 -5 -5 3 -11 -1 -15 -9 -3
-8 -10 -15 -15 -15 -17 0 0 29 20 35 11 4 17 11 14 16 -4 5 4 5 19 0 25 -10
54 7 39 23 -4 4 1 4 10 0 10 -3 17 -3 16 2 -4 23 2 36 16 31 8 -4 17 -2 20 3
3 4 -1 10 -7 12 -8 3 -4 10 11 17 14 8 21 9 17 2 -10 -16 5 -13 25 5 14 12 16
21 8 41 -12 33 -5 41 30 37 32 -4 66 20 55 38 -4 6 1 8 15 3 13 -4 21 -2 21 5
0 6 -4 9 -9 5 -10 -6 -26 33 -18 42 9 8 28 -7 22 -18 -8 -12 2 -11 25 1 11 6
25 20 31 31 8 17 8 20 -1 14 -9 -6 -9 -2 0 15 8 14 8 25 2 29 -5 3 -13 17 -17
31 -7 22 -6 23 9 11 9 -7 16 -20 16 -27 0 -8 7 -14 15 -14 8 0 15 5 15 11 0 5
5 7 11 4 6 -4 13 2 16 14 3 12 10 21 15 21 19 0 -19 45 -43 51 -23 7 -23 7 4
8 33 1 36 18 5 31 -14 5 -17 9 -7 9 8 1 24 -6 35 -14 16 -12 17 -16 5 -24 -12
-8 -12 -12 2 -25 15 -15 18 -14 42 23 27 45 31 56 13 45 -7 -4 -8 -3 -4 5 4 6
11 9 16 6 17 -11 132 226 173 355 6 21 4 36 -6 32 -5 -1 -6 2 -2 8 3 6 10 8
14 6 4 -3 16 18 26 46 17 47 17 52 2 63 -10 7 -17 18 -17 26 0 11 2 11 10 -1
9 -13 10 -13 11 0 0 10 3 9 10 -5 6 -14 7 -5 4 30 -3 33 -2 42 3 25 12 -38 36
122 36 246 1 56 5 100 9 97 4 -2 5 24 2 59 -2 35 -8 104 -12 153 -4 62 -8 81
-13 60 l-6 -30 -7 34 c-4 18 -6 48 -6 65 l2 31 7 -35 c4 -20 8 -26 9 -14 0 11
-4 46 -10 77 l-12 56 -19 -22 c-11 -12 -17 -16 -13 -9 3 6 1 12 -5 12 -6 0 -8
5 -4 11 4 8 9 7 16 -2 7 -10 8 -8 5 9 -3 12 -1 20 4 16 5 -3 9 2 9 10 0 9 -3
15 -7 15 -20 -3 -27 2 -14 10 8 5 11 16 8 25 -8 19 -18 20 -34 1z m-17 -92
c-3 -3 -12 0 -21 7 -12 10 -16 9 -21 -4 -3 -9 -11 -16 -17 -16 -5 0 -2 9 8 20
14 15 22 17 37 9 11 -6 17 -13 14 -16z m1 -49 c12 -1 23 2 23 8 0 5 6 3 14 -5
8 -8 13 -25 10 -38 -4 -22 -3 -22 5 -4 9 19 10 19 10 -2 1 -13 -2 -23 -6 -23
-13 0 -6 -99 7 -115 10 -12 10 -15 -4 -15 -10 0 -16 -9 -16 -25 0 -14 5 -25
10 -25 6 0 10 -11 10 -25 0 -14 -4 -25 -10 -25 -14 0 -13 -177 1 -186 8 -4 8
-9 0 -17 -15 -15 -14 -50 1 -65 9 -9 9 -12 -1 -12 -10 0 -12 -10 -8 -34 5 -32
3 -35 -21 -38 -15 -2 -26 -9 -24 -15 1 -8 -9 -13 -28 -13 -20 0 -30 5 -30 15
0 8 -9 15 -20 15 -11 0 -20 -7 -20 -15 0 -9 -9 -15 -22 -15 -17 0 -20 -3 -9
-9 11 -7 13 -40 12 -158 -1 -82 -6 -166 -11 -188 -5 -22 -5 -44 -1 -50 5 -5 6
-24 4 -41 -4 -25 -11 -33 -33 -37 -15 -3 -40 -3 -56 2 -32 8 -32 6 -33 195 -1
88 -1 89 -21 71 -19 -18 -20 -17 -20 3 0 17 6 22 24 22 23 0 24 2 16 31 -5 18
-6 37 -3 43 10 16 12 96 2 90 -5 -3 -9 -1 -9 5 0 5 5 13 11 16 6 4 8 24 4 51
-4 35 -2 46 10 50 13 5 16 22 15 88 -2 281 -1 316 16 316 8 0 12 -4 9 -10 -4
-6 5 -10 19 -10 16 0 26 6 26 15 0 11 12 15 45 15 l45 0 0 68 c0 46 3 62 10
52 7 -11 8 -4 5 23 -4 27 -2 36 7 31 6 -4 22 -8 35 -10z m70 -6 c-3 -8 -6 -5
-6 6 -1 11 2 17 5 13 3 -3 4 -12 1 -19z m-197 -28 c0 -5 -5 -10 -11 -10 -5 0
-7 5 -4 10 3 6 8 10 11 10 2 0 4 -4 4 -10z m-84 -85 c-8 -8 -18 -15 -22 -15
-3 0 -1 7 6 15 7 8 17 15 22 15 5 0 3 -7 -6 -15z m41 -7 c-3 -8 -6 -5 -6 6 -1
11 2 17 5 13 3 -3 4 -12 1 -19z m270 -145 c-2 -21 -4 -6 -4 32 0 39 2 55 4 38
2 -18 2 -50 0 -70z m-356 64 c-10 -9 -11 -8 -5 6 3 10 9 15 12 12 3 -3 0 -11
-7 -18z m20 -155 c1 -51 -1 -96 -5 -99 -3 -3 -6 40 -6 97 0 127 8 129 11 2z
m329 3 c0 -16 -6 -25 -15 -25 -16 0 -19 9 -9 34 9 25 24 19 24 -9z m7 -167
c-2 -18 -4 -6 -4 27 0 33 2 48 4 33 2 -15 2 -42 0 -60z m-16 -129 c-5 -13 -10
-19 -10 -12 -1 15 10 45 15 40 3 -2 0 -15 -5 -28z m-350 -12 c-1 -12 -15 -9
-19 4 -3 6 1 10 8 8 6 -3 11 -8 11 -12z m329 -18 c0 -5 5 -7 10 -4 6 3 10 1
10 -4 0 -16 -16 -13 -30 4 -9 10 -9 15 -1 15 6 0 11 -5 11 -11z m-110 -19 c0
-6 -7 -13 -15 -16 -11 -4 -15 -21 -15 -56 0 -30 -4 -47 -10 -43 -5 3 -10 33
-10 66 0 56 1 59 25 59 14 0 25 -5 25 -10z m73 -25 c1 -5 -6 -11 -15 -13 -11
-2 -18 3 -18 13 0 17 30 18 33 0z m-21 -47 c-8 -8 -9 -15 -1 -25 9 -10 8 -13
-5 -13 -19 0 -22 46 -3 53 18 6 23 -1 9 -15z m-272 2 c0 -5 -4 -10 -10 -10 -5
0 -10 5 -10 10 0 6 5 10 10 10 6 0 10 -4 10 -10z m245 -44 c8 -61 5 -88 -10
-85 -12 3 -17 139 -5 139 5 0 12 -24 15 -54z m-290 5 c-3 -5 3 -12 12 -14 14
-4 13 -5 -4 -6 -23 -1 -30 9 -16 22 9 10 15 8 8 -2z m362 -23 c-3 -8 -6 -5 -6
6 -1 11 2 17 5 13 3 -3 4 -12 1 -19z m-127 -38 c0 -5 -2 -10 -4 -10 -3 0 -8 5
-11 10 -3 6 -1 10 4 10 6 0 11 -4 11 -10z m114 -4 c-8 -21 -34 -28 -34 -10 0
8 5 12 10 9 6 -3 10 -1 10 4 0 6 4 11 10 11 5 0 7 -6 4 -14z m-379 -56 c3 -6
-1 -7 -9 -4 -18 7 -21 14 -7 14 6 0 13 -4 16 -10z m32 -5 c0 -8 -4 -12 -9 -9
-5 3 -6 10 -3 15 9 13 12 11 12 -6z m-46 -46 c7 -13 7 -19 1 -15 -6 3 -13 2
-17 -4 -3 -5 1 -10 9 -10 9 0 16 -4 16 -10 0 -13 -17 -13 -25 0 -4 6 -11 8
-16 5 -12 -8 -11 -1 3 30 14 30 14 30 29 4z m341 -31 c-9 -9 -15 -9 -24 0 -9
9 -7 12 12 12 19 0 21 -3 12 -12z m-340 -45 c15 -13 15 -17 3 -29 -19 -20 -23
-18 -17 12 4 23 2 25 -18 19 -14 -5 -20 -3 -16 3 3 6 0 13 -6 16 -7 3 -2 3 12
0 14 -4 33 -13 42 -21z m328 2 c0 -8 -4 -15 -10 -15 -5 0 -7 7 -4 15 4 8 8 15
10 15 2 0 4 -7 4 -15z m-409 -32 c-12 -20 -14 -14 -5 12 4 9 9 14 11 11 3 -2
0 -13 -6 -23z m179 6 c0 -5 -4 -8 -9 -5 -5 4 -7 -3 -4 -14 3 -11 0 -20 -6 -20
-6 0 -11 11 -11 25 0 16 6 25 15 25 8 0 15 -5 15 -11z m180 -19 c0 -16 -4 -30
-10 -30 -5 0 -10 14 -10 30 0 17 5 30 10 30 6 0 10 -13 10 -30z m-337 -14 c4
-9 0 -13 -11 -11 -9 2 -19 4 -22 4 -4 1 21 20 26 21 1 0 4 -6 7 -14z m367 4
c0 -5 -5 -10 -11 -10 -5 0 -7 5 -4 10 3 6 8 10 11 10 2 0 4 -4 4 -10z m-16
-35 c-4 -8 -13 -15 -22 -15 -13 0 -12 3 4 15 24 18 25 18 18 0z m-274 -25 c-8
-5 -5 -14 12 -31 21 -22 23 -31 20 -101 -3 -59 -7 -78 -18 -78 -8 0 -14 -10
-14 -21 0 -12 -8 -28 -17 -35 -21 -16 -83 -19 -83 -4 0 6 11 10 25 10 18 0 25
5 25 20 0 12 7 32 16 45 16 24 16 25 -10 25 -21 0 -26 5 -26 24 0 16 -7 26
-22 30 -18 5 -20 8 -9 15 7 5 10 14 7 20 -4 6 0 11 8 11 10 0 16 9 16 25 0 20
5 25 24 25 16 0 27 7 31 20 4 11 11 17 17 14 7 -4 6 -9 -2 -14z m-105 0 c3 -5
1 -10 -4 -10 -6 0 -11 5 -11 10 0 6 2 10 4 10 3 0 8 -4 11 -10z m328 -13 l25
-13 -27 -15 c-25 -15 -26 -15 -27 13 -1 33 -3 32 29 15z m-328 -36 c-3 -11
-15 -23 -26 -26 -16 -5 -18 -9 -8 -21 14 -18 9 -26 -10 -15 -21 13 -6 61 19
61 12 0 20 7 20 17 0 9 3 14 6 10 3 -3 3 -15 -1 -26z m242 -3 c-3 -7 -5 -2 -5
12 0 14 2 19 5 13 2 -7 2 -19 0 -25z m33 8 c0 -13 -6 -26 -14 -29 -11 -5 -12
0 -3 24 14 35 17 36 17 5z m40 -46 c0 -6 -13 -19 -30 -28 -16 -9 -30 -20 -30
-24 0 -16 -26 -7 -37 12 -12 17 -11 18 10 11 19 -7 36 -3 67 17 2 2 -2 7 -10
12 -12 8 -10 10 8 10 12 0 22 -5 22 -10z m-413 -65 c-14 -13 -18 -12 -39 5
-12 11 -17 19 -10 20 6 0 12 -4 12 -10 0 -17 27 -11 35 8 5 11 9 13 12 5 3 -7
-2 -20 -10 -28z m-63 -10 c-4 -8 -10 -15 -15 -15 -5 0 -9 -7 -9 -15 0 -8 -4
-15 -10 -15 -16 0 -12 12 12 37 25 27 29 29 22 8z m422 -7 c5 -7 3 -8 -6 -3
-10 6 -12 4 -7 -8 3 -10 2 -17 -3 -17 -11 0 -13 23 -3 33 9 9 11 9 19 -5z
m-401 -19 c-5 -14 -3 -19 3 -15 6 3 36 3 66 0 l56 -7 0 -48 c0 -31 4 -49 12
-49 6 0 2 -10 -10 -23 -24 -26 -29 -62 -9 -71 10 -5 10 -7 0 -12 -7 -3 -13
-10 -13 -16 0 -16 -54 -88 -67 -88 -6 0 -13 6 -16 13 -2 6 -8 9 -12 5 -4 -4 0
-14 9 -23 22 -22 20 -30 -9 -49 -28 -19 -35 -20 -35 -6 0 6 6 10 14 10 7 0 20
8 27 17 12 15 12 16 -4 10 -11 -4 -16 -3 -12 4 8 13 -13 39 -32 39 -8 0 -12
-4 -9 -9 10 -16 -5 -41 -25 -41 -10 0 -19 -5 -19 -11 0 -5 6 -7 13 -4 6 4 3
-1 -7 -9 -11 -9 -14 -16 -7 -16 7 0 9 -4 6 -10 -10 -16 -25 -12 -25 7 0 12 -3
14 -10 7 -7 -7 -8 -19 -1 -37 7 -17 7 -27 1 -27 -10 0 -14 15 -11 34 1 5 -5 6
-13 3 -9 -4 -18 -2 -21 4 -4 5 4 13 17 18 13 6 19 10 13 11 -5 0 1 7 15 15 14
8 19 14 13 15 -7 0 -13 11 -13 25 0 15 -5 25 -12 24 -33 -4 -38 2 -38 51 0 38
4 50 15 50 8 0 15 5 15 11 0 6 21 9 55 8 45 -2 58 1 70 17 18 24 20 104 3 105
-10 0 -10 2 0 6 17 7 15 30 -5 41 -14 8 -14 12 -2 25 19 22 22 21 14 -4z m-25
-46 c0 -9 -3 -13 -7 -10 -3 4 -13 1 -22 -5 -10 -8 -9 -4 3 10 23 26 26 27 26
5z m339 -5 c1 6 6 12 13 12 6 0 4 -7 -5 -18 -10 -10 -15 -22 -12 -25 3 -4 2
-5 -2 -2 -4 3 -8 18 -10 33 -2 23 -1 24 7 7 5 -11 9 -14 9 -7z m-403 -19 c1
-17 -2 -26 -5 -20 -6 9 -11 8 -21 -4 -7 -8 -8 -15 -2 -15 5 0 13 -8 16 -17 5
-13 0 -11 -19 7 -14 14 -21 26 -16 28 6 2 8 9 5 14 -4 7 -2 8 4 4 6 -3 16 3
22 14 14 26 15 26 16 -11z m326 -54 c0 -5 -5 -11 -11 -13 -6 -2 -11 4 -11 13
0 9 5 15 11 13 6 -2 11 -8 11 -13z m-380 -27 c-7 -7 -12 -8 -12 -2 0 14 12 26
19 19 2 -3 -1 -11 -7 -17z m353 3 c3 -5 1 -12 -5 -16 -5 -3 -10 1 -10 9 0 18
6 21 15 7z m-421 -11 c-12 -4 -24 -15 -27 -24 -4 -9 -14 -16 -22 -16 -11 0 -8
7 12 25 15 13 35 24 43 24 9 0 6 -4 -6 -9z m23 -52 c-3 -8 -6 -5 -6 6 -1 11 2
17 5 13 3 -3 4 -12 1 -19z m-67 -23 c0 -8 -4 -15 -10 -15 -5 0 -10 7 -10 15 0
8 5 15 10 15 6 0 10 -7 10 -15z m-43 -10 c0 -10 -5 -11 -19 -4 -10 5 -18 11
-18 12 0 2 8 3 18 4 10 1 19 -5 19 -12z m73 5 c0 -5 -2 -10 -4 -10 -3 0 -8 5
-11 10 -3 6 -1 10 4 10 6 0 11 -4 11 -10z m-93 -66 c-3 -3 -12 -4 -19 -1 -8 3
-5 6 6 6 11 1 17 -2 13 -5z m128 -24 c3 -5 1 -10 -4 -10 -6 0 -11 5 -11 10 0
6 2 10 4 10 3 0 8 -4 11 -10z m150 -90 c-3 -5 -1 -10 4 -10 6 0 11 -4 11 -10
0 -5 -7 -7 -15 -4 -17 7 -21 34 -4 34 5 0 7 -4 4 -10z m-717 -27 c-2 -10 -13
-19 -26 -21 -12 -2 -22 -8 -22 -13 0 -6 -5 -7 -10 -4 -13 8 29 55 48 55 8 0
12 -8 10 -17z m590 -15 c0 -13 1 -29 3 -37 2 -7 -1 -15 -7 -18 -8 -2 -12 11
-12 37 0 22 3 40 7 40 5 0 9 -10 9 -22z m-712 -35 c-2 -2 -21 -1 -42 3 l-39 8
30 6 c27 6 62 -6 51 -17z m529 -26 c0 -26 -20 -25 -23 2 -3 16 1 22 10 19 7
-3 13 -12 13 -21z m115 19 c0 -2 -7 -6 -15 -10 -8 -3 -15 -1 -15 4 0 6 7 10
15 10 8 0 15 -2 15 -4z m51 -49 c-10 -9 -11 -8 -5 6 3 10 9 15 12 12 3 -3 0
-11 -7 -18z m-79 -22 c-3 -19 -8 -23 -16 -15 -9 6 -17 6 -26 -3 -12 -10 -12
-9 -1 5 7 10 17 16 21 13 4 -3 10 2 14 10 9 24 14 18 8 -10z m-22 -35 c0 -5
-5 -10 -11 -10 -5 0 -7 5 -4 10 3 6 8 10 11 10 2 0 4 -4 4 -10z m-70 -9 c0 -6
-4 -13 -10 -16 -5 -3 -10 1 -10 9 0 9 5 16 10 16 6 0 10 -4 10 -9z m-1495 -41
c3 -5 1 -10 -4 -10 -6 0 -11 5 -11 10 0 6 2 10 4 10 3 0 8 -4 11 -10z m115
-21 c0 -5 -4 -9 -10 -9 -5 0 -10 7 -10 16 0 8 5 12 10 9 6 -3 10 -10 10 -16z
m646 -44 c-3 -31 0 -35 20 -35 13 0 24 -4 24 -9 0 -5 10 -11 23 -13 12 -2 -21
-3 -73 -3 -52 0 -83 1 -67 3 34 4 36 22 2 22 -34 0 -32 20 3 21 l27 2 -27 4
c-20 3 -28 10 -28 24 0 16 7 19 49 19 l49 0 -2 -35z m75 21 c-10 -12 -6 -13
29 -9 36 5 40 3 40 -16 0 -15 7 -21 23 -22 l22 -2 -23 -4 c-13 -3 -33 4 -48
16 -14 11 -32 17 -39 15 -25 -10 -40 8 -20 23 24 17 31 17 16 -1z m-218 -16
c-6 -23 -19 -26 -26 -6 -6 16 1 26 19 26 7 0 10 -8 7 -20z m-210 3 c-13 -2
-35 -2 -50 0 -16 2 -5 4 22 4 28 0 40 -2 28 -4z m-55 -45 c-10 -6 -10 -10 2
-19 13 -9 13 -10 0 -6 -8 2 -15 15 -15 30 -1 21 2 24 13 15 10 -9 11 -13 0
-20z m102 12 c12 -8 11 -10 -7 -10 -13 0 -23 5 -23 10 0 13 11 13 30 0z m141
-8 c-13 -2 -27 0 -32 5 -6 6 3 7 23 4 28 -4 29 -6 9 -9z m434 -24 c18 -4 18
-6 3 -12 -12 -5 -25 0 -42 17 -14 14 -22 28 -19 31 3 3 13 -3 22 -13 9 -10 25
-21 36 -23z m65 32 c0 -5 -11 -10 -25 -10 -14 0 -25 5 -25 10 0 6 11 10 25 10
14 0 25 -4 25 -10z m114 1 c6 -10 -43 -25 -52 -16 -3 3 2 5 12 5 9 0 14 5 11
10 -3 6 1 10 9 10 8 0 17 -4 20 -9z m-318 -46 c17 -16 14 -18 -10 -9 -9 3 -16
10 -16 15 0 13 9 11 26 -6z m-283 -22 c-7 -2 -19 -2 -25 0 -7 3 -2 5 12 5 14
0 19 -2 13 -5z"/>
<path d="M1147 2233 c-10 -10 -8 -93 2 -93 9 0 21 47 21 81 0 19 -11 25 -23
12z"/>
<path d="M4036 1704 c-4 -9 -4 -19 -1 -22 2 -3 7 3 11 12 4 9 4 19 1 22 -2 3
-7 -3 -11 -12z"/>
<path d="M3945 900 c-4 -6 -11 -7 -17 -4 -7 4 -8 2 -4 -5 6 -9 11 -9 22 0 14
11 18 19 10 19 -3 0 -8 -5 -11 -10z"/>
<path d="M3085 770 c-3 -5 -1 -10 4 -10 6 0 11 5 11 10 0 6 -2 10 -4 10 -3 0
-8 -4 -11 -10z"/>
<path d="M2720 730 c0 -5 -22 -10 -50 -10 -43 0 -50 -3 -50 -20 0 -21 2 -22
112 -24 58 -1 71 9 50 40 -10 15 -62 27 -62 14z"/>
<path d="M2527 679 c8 -8 16 -8 30 0 16 9 14 10 -11 11 -22 0 -27 -3 -19 -11z"/>
</g>
</svg>
